<svg width="21" height="21" viewBox="0 0 21 21" fill="none" xmlns="http://www.w3.org/2000/svg">
<path d="M6.44531 1.05469C6.28906 0.664062 6.04167 0.390625 5.70312 0.234375C5.33854 0.078125 4.96094 0.0390625 4.57031 0.117188L1.13281 1.05469C0.429688 1.3151 0.0520833 1.82292 0 2.57812C0.0260417 5.83333 0.820312 8.77604 2.38281 11.4062C3.94531 14.0365 6.04167 16.1328 8.67188 17.6953C11.3021 19.2578 14.2448 20.0521 17.5 20.0781C18.2552 20.026 18.763 19.6484 19.0234 18.9453L19.9609 15.5078C20.0391 15.1172 20 14.7396 19.8438 14.375C19.6875 14.0365 19.4141 13.7891 19.0234 13.6328L15.2734 12.0703C14.5703 11.8359 13.9714 11.9922 13.4766 12.5391L11.9141 14.4531C10.5339 13.8021 9.29688 12.9427 8.20312 11.875C7.13542 10.7812 6.27604 9.54427 5.625 8.16406L7.53906 6.60156C8.08594 6.10677 8.24219 5.50781 8.00781 4.80469L6.44531 1.05469Z" fill="#800020"/>
</svg>
