<svg width="20" height="15" viewBox="0 0 20 15" fill="none" xmlns="http://www.w3.org/2000/svg">
<path d="M1.875 0C1.35417 0.0260417 0.911458 0.208333 0.546875 0.546875C0.208333 0.911458 0.0260417 1.35417 0 1.875C0.0260417 2.5 0.273438 2.99479 0.742188 3.35938L9.25781 9.76562C9.7526 10.0781 10.2474 10.0781 10.7422 9.76562L19.2578 3.35938C19.7266 2.99479 19.974 2.5 20 1.875C19.974 1.35417 19.7917 0.911458 19.4531 0.546875C19.0885 0.208333 18.6458 0.0260417 18.125 0H1.875ZM0 4.375V12.5C0.0260417 13.2031 0.273438 13.7891 0.742188 14.2578C1.21094 14.7266 1.79688 14.974 2.5 15H17.5C18.2031 14.974 18.7891 14.7266 19.2578 14.2578C19.7266 13.7891 19.974 13.2031 20 12.5V4.375L11.4844 10.7422C11.0417 11.0807 10.5469 11.25 10 11.25C9.45312 11.25 8.95833 11.0807 8.51562 10.7422L0 4.375Z" fill="#800020"/>
</svg>
